<?xml version="1.0" encoding="UTF-8"?>
<svg id="artwork" xmlns="http://www.w3.org/2000/svg" viewBox="0 0 246.18 72">
  <defs>
    <style>
      .cls-1 {
        fill: #0047ff;
      }

      .cls-2 {
        fill: #010623;
      }
    </style>
  </defs>
  <path class="cls-1" d="M132.4,36c0,19.88-16.12,36-36,36s-36-16.12-36-36S76.52,0,96.4,0s36,16.12,36,36ZM96.4,11.88c-13.32,0-24.12,10.8-24.12,24.12s10.8,24.12,24.12,24.12,24.12-10.8,24.12-24.12-10.8-24.12-24.12-24.12Z"/>
  <path class="cls-2" d="M52.14,51.67c0,12.38-10.97,20.33-26.13,20.33C11.92,72,1.47,65.06.04,52.81c-.05-.57-.07-.82.04-1.22.11-.4.32-.76.6-1.06.28-.3.63-.53,1.02-.67s.71-.12,1.21-.12h6.03c1.73,0,2.76.94,3.09,2.68,1.19,6.22,7.13,8.53,13.97,8.53,7.93,0,14.25-2.85,14.25-9.29,0-15.54-39.17-5.46-39.17-31.33C1.09,8.03,12.06,0,26.03,0,38.9,0,49.29,6.93,50.66,19.19c.05.42.06.82-.05,1.22-.11.4-.32.76-.61,1.06-.28.3-.63.53-1.02.66-.39.14-.83.12-1.21.12h-6.08c-1.73,0-2.74-1.07-3.09-2.71-1.16-6.2-6.89-8.5-12.61-8.5-6.7,0-13.02,2.85-13.02,9.29-.02,15.65,39.17,5.49,39.17,31.33ZM180.73,61.43c-.13-.37-.34-.71-.62-.99-.28-.28-.62-.49-.99-.62s-.78-.13-1.16-.13h-20.95V3.32c0-.39,0-.79-.13-1.17-.13-.38-.34-.72-.63-1s-.62-.49-1-.63c-.38-.13-.78-.17-1.17-.13h-6.03c-.39-.05-.79,0-1.17.13-.38.13-.72.34-1,.63-.28.28-.49.62-.63,1s-.13.86-.13,1.17v65.32c0,.43,0,.79.13,1.17s.34.72.63,1c.28.28.62.49,1,.63.38.13.76.13,1.17.13h29.91c.37,0,.79,0,1.16-.13.37-.13.71-.34.99-.62s.49-.62.62-.99c.13-.37.13-.76.13-1.16v-6.08c0-.4,0-.79-.13-1.16ZM217.3,61.97c-10.83,0-15.58-5.06-15.58-11.88s4.75-11.88,15.58-11.88c10-.02,17.01,5.01,17.01,11.88s-7.01,11.9-17.01,11.88ZM243.26,71.57c.38,0,.8,0,1.18-.12.38-.13.72-.34,1-.62.28-.28.5-.63.62-1,.13-.38.12-.76.12-1.18V26.04c0-16.54-11.47-26.04-26.77-26.04-14.18,0-24.94,8.15-26.53,20.6-.04.39-.04.82.08,1.22s.33.75.61,1.05.63.53,1.02.66c.39.14.81.13,1.21.13h6.03c1.76,0,2.67-.97,3.04-2.73,1.31-6.44,7.41-9.62,14.54-9.62,8.03,0,14.89,4.16,14.89,15.09v9.72c-4.44-5.01-11.62-7.94-20.38-7.94-12.47,0-24.06,7.13-24.06,21.91s11.59,21.91,24.06,21.91c8.77,0,15.94-2.83,20.38-8.79v5.44c0,.37,0,.79.12,1.17.13.38.34.72.62,1,.28.28.62.5.99.63.37.13.78.13,1.17.13h6.05Z"/>
</svg>